Coordinates
version=1
nRows=12
nColumns=34
inDegrees=yes

Units are S.I. units (second, meters, Newtons, ...)
If the header above contains a line with 'inDegrees', this indicates whether rotational values are in degrees (yes) or radians (no).

endheader
time	pelvis_tilt	pelvis_list	pelvis_rotation	pelvis_tx	pelvis_ty	pelvis_tz	hip_flexion_r	hip_adduction_r	hip_rotation_r	knee_angle_r	ankle_angle_r	subtalar_angle_r	mtp_angle_r	hip_flexion_l	hip_adduction_l	hip_rotation_l	knee_angle_l	ankle_angle_l	subtalar_angle_l	mtp_angle_l	lumbar_extension	lumbar_bending	lumbar_rotation	arm_flex_r	arm_add_r	arm_rot_r	elbow_flex_r	pro_sup_r	arm_flex_l	arm_add_l	arm_rot_l	elbow_flex_l	pro_sup_l
      5.33333330	    -33.59497490	     -0.12645216	      2.88854814	      0.38872460	      0.58048231	     -0.08487342	    118.91052869	    -17.29255079	      0.63036775	    111.89800822	     20.28183507	    -35.00000000	      0.00000000	    119.99999986	     -8.70744144	      4.57430762	    111.37603618	     25.27123074	     -5.51234402	      0.00000000	    -39.23010481	      4.48127782	    -10.47849973	    140.60203507	      0.46821862	     32.24871219	     40.49904566	     66.67512053	    -32.80803502	   -174.77259091	   -126.70540825	     37.54636306	     26.00315314
      5.35000000	    -35.05576493	     -0.17032524	      2.15368369	      0.41221272	      0.59615169	     -0.09021500	    118.75984101	    -16.02204792	      0.05233483	    110.13884155	     20.22885418	    -35.00000000	      0.00000000	    119.99999986	     -9.24264748	      4.61362147	    109.73992287	     24.72772481	     -6.08630855	      0.00000000	    -37.31937574	      3.97253917	     -9.88541488	    139.61171092	     -0.10739072	     32.48931657	     41.92822543	     67.05153145	    -34.01828723	   -174.22072405	   -127.21309810	     39.19259851	     26.11017462
      5.36666670	    -36.47336339	     -0.34872696	      2.07724695	      0.40206149	      0.60487454	     -0.08582008	    118.42848089	    -15.17876465	     -0.24140136	    107.98075432	     19.99514081	    -35.00000000	      0.00000000	    119.99999986	     -9.23608780	      4.40052753	    107.80449829	     24.62834879	     -6.30700751	      0.00000000	    -35.33008321	      3.77386705	     -9.88613304	    138.56526879	     -0.00051305	     32.14382764	     42.81675509	     67.27816735	    -34.66594816	   -174.40172519	   -127.78984736	     39.61419064	     26.22433677
      5.38333330	    -37.81303813	     -0.37352238	      1.19650959	      0.40072470	      0.61810052	     -0.08918677	    118.20920022	    -13.85030547	     -0.75644490	    105.73482139	     19.39381563	    -35.00000000	      0.00000000	    119.99999986	     -9.66895795	      4.51381582	    105.98998210	     24.16867913	     -7.00543010	      0.00000000	    -33.49633112	      3.34079881	     -9.25015554	    138.28515555	      0.18472155	     32.12100871	     43.26274212	     67.39411214	    -35.03922591	   -174.21315837	   -127.88027261	     39.71931187	     26.31061157
      5.40000000	    -39.51141395	     -0.25372645	      0.61662953	      0.41783625	      0.63052154	     -0.09194854	    117.94110990	    -13.20021977	     -0.94029999	    104.10299953	     19.35246784	    -35.00000000	      0.00000000	    119.99999986	    -10.21110413	      4.29244426	    104.53260325	     24.22889647	     -7.25185407	      0.00000000	    -30.37751697	      2.87212472	     -7.82507759	    136.15918089	     -0.73498949	     31.97959761	     44.86904835	     69.01376957	    -38.34620027	   -174.57362815	   -131.09410756	     41.78418558	     27.57801420
      5.41666670	    -40.24197638	      0.18846910	      0.44641627	      0.43136751	      0.65999959	     -0.09347020	    115.92383720	    -12.92986424	     -0.65425839	    101.54939335	     18.81151017	    -35.00000000	      0.00000000	    117.53864425	    -10.76426611	      2.96124028	    101.98875320	     24.59361848	     -7.69172939	      0.00000000	    -28.68852022	      2.29063291	     -8.01345011	    133.10487237	     -1.13907894	     31.45148068	     47.59218252	     69.85702858	    -41.09142839	   -174.04534618	   -132.14581370	     44.25862592	     28.42137716
      5.43333330	    -40.60826557	      0.76598170	      0.43324654	      0.44028985	      0.67604269	     -0.09364850	    113.85112633	    -13.23081266	     -0.54555027	     99.56158219	     18.50174753	    -35.00000000	      0.00000000	    114.63297644	    -11.21407046	      1.43420693	     99.30194604	     25.58204107	     -7.59331944	      0.00000000	    -26.95686595	      1.63887284	     -7.64498051	    129.40943522	     -1.80029071	     30.32010903	     50.41877851	     71.15476673	    -45.26384881	   -173.71994850	   -134.65749332	     47.32101778	     29.90959890
      5.45000000	    -40.66093684	      1.31425389	      0.60019958	      0.44758190	      0.69850983	     -0.09300495	    111.52218252	    -13.63781552	     -0.42447852	     97.34915595	     17.65192867	    -35.00000000	      0.00000000	    111.36960128	    -11.54586737	     -0.33292559	     96.50231858	     26.23527728	     -7.52791109	      0.00000000	    -25.44536161	      0.84923633	     -7.33990227	    125.46586175	     -2.64971793	     29.12559273	     53.50980854	     73.36725899	    -50.34154522	   -173.54296868	   -138.38816985	     51.77037592	     32.99957681
      5.46666670	    -40.68502453	      1.34152033	      1.16664788	      0.46314831	      0.72339227	     -0.08693878	    108.68312449	    -14.30817896	     -0.88749878	     95.19672016	     17.18193287	    -35.00000000	      0.00000000	    107.80152927	    -11.67422617	     -1.74786416	     93.17591865	     26.36848674	     -7.34918137	      0.00000000	    -23.81951158	      0.62619732	     -7.85687634	    119.34418316	     -3.26655371	     28.25139796	     59.60982466	     74.29993107	    -55.43213892	   -172.00798679	   -139.17337312	     56.98445791	     34.33585968
      5.48333330	    -40.65465551	      1.25793288	      2.01520882	      0.45956666	      0.73868696	     -0.08742590	    106.20585016	    -15.22300541	     -1.44928604	     92.72812683	     17.03538438	    -35.00000000	      0.00000000	    104.96915546	    -11.31597406	     -3.04157686	     90.17799049	     26.37169698	     -7.34903164	      0.00000000	    -22.55529649	      0.40716957	     -8.63249576	    116.28332350	     -3.50957105	     26.58825407	     61.25019345	     75.16547367	    -58.30844790	   -171.67274099	   -140.41023894	     58.30503245	     35.62247568
      5.50000000	    -40.64942376	      1.42153629	      2.23799616	      0.47438811	      0.76139935	     -0.09508359	    103.19204188	    -16.00097156	     -2.20710983	     89.57441692	     16.53799037	    -35.00000000	      0.00000000	    101.70682214	    -11.32411999	     -4.59192967	     86.92277526	     26.07294329	     -7.63895257	      0.00000000	    -20.76380939	      0.22414001	     -9.19669431	    112.04359268	     -3.27697014	     24.75009096	     62.92899855	     80.05735047	    -63.30944057	   -170.45712336	   -142.51493296	     61.78295282	     40.65385023
      5.51666670	    -40.04393805	      1.50041782	      2.39514285	      0.47012727	      0.77940770	     -0.09863500	    100.34700630	    -16.76123409	     -2.99923434	     86.83550814	     15.64239788	    -35.00000000	      0.00000000	     98.73781233	    -10.98503106	     -5.64134324	     84.28564479	     26.03583361	     -7.76611938	      0.00000000	    -19.98096383	     -0.07575656	     -8.14743643	    110.70600527	     -4.40894557	     25.41727558	     62.29224339	     80.39403762	    -66.51229431	   -172.06967548	   -144.06958753	     61.55204565	     40.97524848
